<svg xmlns="http://www.w3.org/2000/svg" viewBox="0 0 178.25 41.43"><defs><style>.cls-1{fill:#fbaa1b;}.cls-2{fill:#3b1a53;}</style></defs><title>Asset 6</title><g id="Layer_2" data-name="Layer 2"><g id="Layer_1-2" data-name="Layer 1"><path class="cls-1" d="M178.25,24.76c.07-.5-1-1.18-2.09-1.48-8.28-2.74-16.23-10.21-25.29-12.6-6.43-1.7-12.23-3-18.8-4.6C98.05-2.06,63.14.27,62.21.42S27.28,4.09,23.4,5.24c-.56-.06-3.08.51-3.37.52C9.66,5.92,2.65,13,.82,15.31c-.92,1.17-1,2.07-.47,2.54s2,.56,4,.06c0,0,0,0,0,0A9.31,9.31,0,0,0,1,21.12c-.29.59.26.86.52,1.24.1.69,4,.33,2.64.88,0,0-.83.12-1.61.31l-.78.6a2.68,2.68,0,0,0-.2.29c0,.1,0,.1-.31.66a.5.5,0,0,0,.12.2c.18,0,.18,0,.33.3a1.94,1.94,0,0,0,.46,0l1.18-.32c-.05.09-.1.17-.14.26.05.62.06.62,1.52,1.35a6,6,0,0,0,1.65-.13l2.32-.84.74-.23a6.09,6.09,0,0,1,.81.14h0a2.93,2.93,0,0,0-.59.41c-.48.43-.45.78.07.77-.3,1.13.31,1.72,1.29,2.11a1.35,1.35,0,0,0,0,1,5.67,5.67,0,0,0-.83,3.07l.14.75a3.29,3.29,0,0,0,2.55.65l.38,0-.11.73c1.86.93,4.91,1,7,1.81l1.47.28A9.94,9.94,0,0,0,26,37.17c.61-.16,1.21-.32,1.82-.46l1.12-.4c-1.68,1.45-2.38,3-1.72,4,1.13,1.66,5.56,1.45,10-.33a171.92,171.92,0,0,1,17.66-5A115.24,115.24,0,0,1,72,32.28c1-.12,2.28-.11,3.45-.16L79,32c1.17,0,2.34-.09,3.5-.1l3.46,0a113.45,113.45,0,0,1,13.83.85c9,.27,17.67.83,26.52,1.88,7.43.89,20.48,1.24,20.61,1.23s8.21.68,9.39.65c.15,0,.56,0,.59-.17s0-.14-.13-.22c-.37-.36-3.56-1.54-3.54-1.64.09-.63,6.92.18,13.82,2,.45.15.85.13.89-.06s-.31-.46-.76-.61c-5.1-2.12-6.42-3.52-3-2.4,1.24.48,2.57.5,2.58,0,0-1.27-5.4-4.06-5.36-5,0-.55,5,1.33,4.39-1.15-.13-.51-7.45-2.53-6.74-2.64.49-.08,6.76.49,9.94.94C173.64,26.19,178.08,25.94,178.25,24.76Z"/><path class="cls-2" d="M34.08,13.82a1.78,1.78,0,0,0-.41-.89,1.37,1.37,0,0,0-1.1-.4c-.38,0-.62.11-.71.35l-.09.67c0,.23,0,.46,0,.68s0,.73.07,1.58c0,.17,0,.33,0,.47s0,.28,0,.4,0,.26,0,.38,0,.24,0,.33A5,5,0,0,0,34,14.58c0-.11,0-.21,0-.31s0-.18,0-.26Zm-4.56,9.6c0-.46.07-1,.13-1.5s.08-1.13.08-1.76V17.58c0-1.09,0-2.07,0-2.95A16.91,16.91,0,0,1,30,12.17q.24-1.35,2.43-1.35h.34A2.93,2.93,0,0,1,35,12.1a3.81,3.81,0,0,1,.87,2.46A3.72,3.72,0,0,1,35,16.78a6.07,6.07,0,0,1-1.72,1.6,2,2,0,0,0-.33.23.32.32,0,0,0-.12.25.37.37,0,0,0,.11.27c.07.07.19.18.36.32l.76.64,2.62,2.45c.54.51,1,1,1.39,1.41A6.67,6.67,0,0,1,39,25.19a.52.52,0,0,1,.07.21c0,.36-.38.64-1.14.83a25.62,25.62,0,0,1-3.12-3c-.7-.75-1.31-1.39-1.82-1.9s-.92-.92-1.27-1.22c0,.21-.07.58-.11,1.11s-.09,1.24-.15,2.11a16.12,16.12,0,0,1-.43,3.11.8.8,0,0,0-.23.11.79.79,0,0,1-.38.11h-.05l-.05,0a1.3,1.3,0,0,1-1-1.44,3.39,3.39,0,0,1,0-.43c0-.17,0-.34.07-.51Z"/><path class="cls-2" d="M41,19.83l.3,0h.32a1.78,1.78,0,0,0,1.24-.4,1.27,1.27,0,0,0,.43-1,1,1,0,0,0-.19-.61.59.59,0,0,0-.52-.29,2.4,2.4,0,0,0-.46,0,.5.5,0,0,0-.34.24,1.51,1.51,0,0,1-.21.23,1.27,1.27,0,0,0-.23.33A3.77,3.77,0,0,0,41,19.83M39,21.1a7.13,7.13,0,0,1,.22-1.76,5.4,5.4,0,0,1,.67-1.59A3.7,3.7,0,0,1,41,16.6a2.75,2.75,0,0,1,1.54-.44,2.88,2.88,0,0,1,1.07.19,2.23,2.23,0,0,1,.77.5,1.9,1.9,0,0,1,.46.7,2.05,2.05,0,0,1,.16.81,2.92,2.92,0,0,1-.2,1.05,3,3,0,0,1-.58.91,2.87,2.87,0,0,1-.94.65,3.15,3.15,0,0,1-1.26.27,1.86,1.86,0,0,1-.54,0c-.16,0-.34-.08-.55-.14a1.68,1.68,0,0,0,0,.2v.13a3.3,3.3,0,0,0,.28,1.37,2.29,2.29,0,0,0,.57.74,1.5,1.5,0,0,0,.59.32,1.81,1.81,0,0,0,.38.07,2.14,2.14,0,0,0,1.22-.33L45,22.85l.26.11a.65.65,0,0,1,.26.22,1.49,1.49,0,0,0,0,.22,1.47,1.47,0,0,1,0,.25,1.09,1.09,0,0,1-.18.56,1.83,1.83,0,0,1-.34.39,3.3,3.3,0,0,1-1.14.67,5.25,5.25,0,0,1-1.39.16,3.41,3.41,0,0,1-.93-.17,5.33,5.33,0,0,1-.93-.36,4.28,4.28,0,0,1-.89-.84,4,4,0,0,1-.5-.9,4.66,4.66,0,0,1-.23-1c0-.34-.07-.7-.08-1.08"/><path class="cls-2" d="M48.4,23.37s0,0,0,0,0,0,0,0a1.23,1.23,0,0,0,.71-.41,7.12,7.12,0,0,0,.8-.94A11.21,11.21,0,0,0,50.68,21a7.1,7.1,0,0,0,.5-1.08c.07-.14.14-.3.23-.47l.26-.53a3.45,3.45,0,0,0,.21-.51A1.13,1.13,0,0,0,52,18a1,1,0,0,1-.21-.1.46.46,0,0,0-.21,0,1.25,1.25,0,0,0-.92.4,4.72,4.72,0,0,0-.7.9,6.52,6.52,0,0,0-.48.95c-.13.31-.22.5-.26.58a7.39,7.39,0,0,0-.56,1.28,4.24,4.24,0,0,0-.22,1.32Zm6.66,1.23c0,.12.09.25.14.39a1.07,1.07,0,0,1,.07.39.46.46,0,0,1-.1.31.93.93,0,0,1-.26.18,1.35,1.35,0,0,1-.32.11,1.88,1.88,0,0,1-.31,0,.89.89,0,0,1-.78-.54,4.79,4.79,0,0,1-.5-1.32c-.12-.53-.23-1.09-.32-1.68s-.17-1.12-.24-1.59A4.53,4.53,0,0,1,52,22.14a7.55,7.55,0,0,1-1,1.45,7,7,0,0,1-1.3,1.2,2.49,2.49,0,0,1-1.42.49,1.73,1.73,0,0,1-.93-.22,1.58,1.58,0,0,1-.56-.56,2.17,2.17,0,0,1-.26-.74,4.32,4.32,0,0,1-.07-.77,6.15,6.15,0,0,1,.39-1.92,10.87,10.87,0,0,1,1.06-2.24A8.09,8.09,0,0,1,49.47,17a2.85,2.85,0,0,1,1.88-.77,1.79,1.79,0,0,1,.48.07l.56.18a3.36,3.36,0,0,1,.54.26,3.94,3.94,0,0,1,.45.29,1.59,1.59,0,0,1,.54.9,8.8,8.8,0,0,1,.22,1.18c.11.79.19,1.5.26,2.14a14.53,14.53,0,0,0,.35,2l.14.88Z"/><path class="cls-2" d="M58.32,23.44a1.19,1.19,0,0,0,.85-.35,3.36,3.36,0,0,0,.61-.85,6.4,6.4,0,0,0,.45-1,9.36,9.36,0,0,1,.38-.95c.06-.23.13-.47.21-.71a2.31,2.31,0,0,0,.12-.75.09.09,0,0,0-.08-.09l-.2,0-.24,0a.19.19,0,0,1-.16-.14,1.77,1.77,0,0,1,0-.23,1.93,1.93,0,0,0,0-.24H60a7.45,7.45,0,0,1-.75.95,3.21,3.21,0,0,0-.62,1.1c-.1.29-.18.53-.25.75a5.54,5.54,0,0,0-.17.6,5.4,5.4,0,0,0-.09.58,4.28,4.28,0,0,0,0,.65.91.91,0,0,0,.1.4,2.75,2.75,0,0,1,.14.4m5.62-2.83a3.24,3.24,0,0,0,.08.44c.06.24.13.49.22.76s.17.53.25.78a4,4,0,0,0,.18.52,2.11,2.11,0,0,1,.22.54,3.18,3.18,0,0,0,.19.57.78.78,0,0,1-.24.66.73.73,0,0,1-.47.19h-.3a1.33,1.33,0,0,1-.29,0,4.71,4.71,0,0,1-.45-.22,1.34,1.34,0,0,1-.45-.66,2,2,0,0,1-.24-.6c-.08-.29-.15-.6-.22-.93s-.14-.64-.21-.94a4.11,4.11,0,0,0-.2-.62,7.17,7.17,0,0,1-.57,1.73,5.62,5.62,0,0,1-.88,1.32,3.72,3.72,0,0,1-1,.82,2.26,2.26,0,0,1-1.06.29,1.93,1.93,0,0,1-1.72-.8,3.32,3.32,0,0,1-.55-2,6.68,6.68,0,0,1,.2-1.51A10.19,10.19,0,0,1,57,19.33a7.88,7.88,0,0,1,.89-1.51A4.89,4.89,0,0,1,59,16.68a3,3,0,0,0,.33-.23,1.09,1.09,0,0,1,.71-.19,2.37,2.37,0,0,1,.65.09l.63.19c0-.55,0-1.09-.07-1.63s-.08-1.05-.08-1.56c0,0,0-.25,0-.6s0-.77,0-1.24V11c0-.16,0-.33,0-.5a1.17,1.17,0,0,0,0-.42.45.45,0,0,1,.14-.39,1.14,1.14,0,0,1,.49-.34,1.7,1.7,0,0,1,.58-.11.79.79,0,0,1,.66.32,1.22,1.22,0,0,1,.23.7c0,.54,0,1-.06,1.52s-.05,1-.05,1.6c0,.36,0,.79.07,1.29s.09,1,.14,1.36.06.69.09,1.08.07.79.12,1.2.1.79.17,1.17a8,8,0,0,0,.23,1Z"/><path class="cls-2" d="M73.56,23.68c-.14-.57-.28-1.29-.42-2.18s-.26-1.92-.39-3.12-.25-2.23-.39-3.1A21.75,21.75,0,0,0,72,13.14.73.73,0,0,1,72,12.6a.51.51,0,0,1,.4-.29,2.59,2.59,0,0,1,.48,0,1.1,1.1,0,0,1,1,.59c.13.66.29,1.81.49,3.46s.43,3.8.69,6.48c.4-1.35.66-2.34.78-2.95.07-.3.13-.65.19-1s.14-.83.22-1.32l.21-.9c.06-.3.12-.6.19-.9.06-.72.33-1.09.8-1.09a2.06,2.06,0,0,1,.52.08.21.21,0,0,0,.21.16c.13,0,.2,0,.22.07A10.52,10.52,0,0,1,79.2,18c.16.91.3,1.8.43,2.68s.24,1.74.33,2.58c.22-1.41.42-2.64.6-3.67S80.9,17.7,81,17a16,16,0,0,1,1.28-4,.71.71,0,0,1,.68-.31,1.41,1.41,0,0,1,.67.15.81.81,0,0,1,.54.75,2.18,2.18,0,0,1-.28.9c-.13.25-.22.45-.28.59l-.1.26c-.19.58-.4,1.32-.62,2.2s-.45,1.92-.7,3.12-.49,2.23-.69,3.1-.39,1.59-.57,2.14c-.09.32-.36.47-.8.47a1.58,1.58,0,0,1-.54-.11,2.7,2.7,0,0,1-1.26-1.75s0-.22-.09-.57-.13-.85-.24-1.51c-.06-.51-.13-1.09-.2-1.75s-.16-1.4-.27-2.22c-.19.87-.36,1.67-.51,2.41s-.28,1.42-.41,2a6.22,6.22,0,0,1-1.11,2.88c-.13.13-.35.14-.66.05a1.16,1.16,0,0,1-1-.85Z"/><path class="cls-2" d="M85.09,24.69a1.59,1.59,0,0,0,.06-.43c0-.22,0-.48,0-.8s0-.62,0-1,0-.67,0-1,0-.54,0-.76,0-.33,0-.36v-.78c0-.35,0-.7,0-1l-.06-1v-.1a1,1,0,0,0-.09-.41,1.05,1.05,0,0,1-.1-.44,1.23,1.23,0,0,1,.26-.47.83.83,0,0,1,.59-.17,1.19,1.19,0,0,1,.64.16,1,1,0,0,1,.36.38,1.39,1.39,0,0,1,.15.5l.06.55.07,1.25a2.87,2.87,0,0,0,.5-.56c.17-.24.35-.5.54-.79s.39-.56.59-.82A3.74,3.74,0,0,1,89.2,16a1.06,1.06,0,0,1,.47-.09,1.73,1.73,0,0,1,.91.21,1.31,1.31,0,0,1,.53.69,1.28,1.28,0,0,1-.26.48q-.21.27-.48.57l-.57.61a6.42,6.42,0,0,0-.51.63,7.58,7.58,0,0,0-.71.92A12.17,12.17,0,0,0,88,21.1q-.28.57-.48,1.08a2.6,2.6,0,0,0-.18.81c0,.13,0,.3,0,.53s0,.41,0,.53a3.79,3.79,0,0,1,0,.58,1.5,1.5,0,0,1-.19.55,1.12,1.12,0,0,1-.38.4,1.1,1.1,0,0,1-.61.15,1,1,0,0,1-.72-.27.92.92,0,0,1-.27-.67Z"/><path class="cls-2" d="M92.79,11.15a.64.64,0,0,1,.42-.11,1.6,1.6,0,0,1,1,.32,1.22,1.22,0,0,1,.34.34.66.66,0,0,1,.13.4.67.67,0,0,1-.22.6,1,1,0,0,1-.63.16,1.69,1.69,0,0,1-.53-.09,2.1,2.1,0,0,1-.48-.2,1.43,1.43,0,0,1-.35-.25.39.39,0,0,1-.13-.24,1.85,1.85,0,0,1,.06-.5c0-.14.19-.28.44-.43m2.08,13.31a.74.74,0,0,1-.1.37,1.72,1.72,0,0,1-.35.45,3.38,3.38,0,0,1-.74-.07,1.28,1.28,0,0,1-.6-.28,1.4,1.4,0,0,1-.38-.62,3.14,3.14,0,0,1-.15-1.08,3.71,3.71,0,0,0-.08-.81,4.26,4.26,0,0,1-.08-.8,18.53,18.53,0,0,0-.14-2.29A16.83,16.83,0,0,1,92.1,17a.86.86,0,0,1,.41-.76,2.51,2.51,0,0,1,.44-.1l.48-.09a1.19,1.19,0,0,1,.49.27l.31.35a3.59,3.59,0,0,0,0,.47c0,.16,0,.32,0,.5a18.69,18.69,0,0,0,.1,1.91c.06.68.13,1.32.21,1.94s.15,1.17.22,1.67.13.89.16,1.16Z"/><path class="cls-2" d="M98.22,10a3.57,3.57,0,0,1,.07-.62l.31-.15a.68.68,0,0,1,.31-.06,1.36,1.36,0,0,1,.65.14,1.1,1.1,0,0,1,.38.36,1.44,1.44,0,0,1,.17.48,3.27,3.27,0,0,1,0,.53c0,.33,0,.62,0,.87s0,.48,0,.72,0,.5,0,.74,0,.49,0,.74,0,.36,0,.55,0,.38,0,.59a2.11,2.11,0,0,0,0,.26c0,.08.09.12.22.12a2.55,2.55,0,0,0,1.07-.21,2.77,2.77,0,0,1,1.08-.2.45.45,0,0,1,.45.26,1.43,1.43,0,0,1,.11.52.73.73,0,0,1-.14.49.85.85,0,0,1-.35.27,3.1,3.1,0,0,1-.46.15l-.49.13a2.51,2.51,0,0,1-.51.18,4.46,4.46,0,0,0-.55.2,1.57,1.57,0,0,0-.45.31.61.61,0,0,0-.19.47c0,.11,0,.21,0,.31a2.64,2.64,0,0,1,0,.28c0,.1,0,.2,0,.3s0,.21,0,.32a15.65,15.65,0,0,0,.16,2.21c.1.76.21,1.5.34,2.2,0,.23.1.45.16.67a2,2,0,0,1,.1.61.76.76,0,0,1-.21.59,1.19,1.19,0,0,1-.48.26l-.28.05a.92.92,0,0,1-.6-.23,1.9,1.9,0,0,1-.46-.55,5,5,0,0,1-.21-.9c0-.38-.09-.72-.1-1,0-.77-.08-1.54-.1-2.3s0-1.53,0-2.31a.88.88,0,0,0,0-.17.41.41,0,0,0,0-.18,2.73,2.73,0,0,0-.71.21,1.39,1.39,0,0,1-.66.14A1.16,1.16,0,0,1,96,18c-.22-.21-.38-.37-.49-.5a2.8,2.8,0,0,1,.11-.66,4.37,4.37,0,0,1,.57-.17l.51-.09c.17,0,.33-.07.51-.12a2.35,2.35,0,0,0,.56-.24c.26,0,.4-.09.44-.29a2.67,2.67,0,0,0,.06-.51c0-.28,0-.52,0-.72s0-.48,0-.84,0-.47,0-.72,0-.48,0-.72Z"/><path class="cls-2" d="M104.89,19.83l.29,0h.32a1.75,1.75,0,0,0,1.24-.4,1.28,1.28,0,0,0,.44-1,1.12,1.12,0,0,0-.19-.61.6.6,0,0,0-.52-.29,2.31,2.31,0,0,0-.46,0,.48.48,0,0,0-.34.24,2.39,2.39,0,0,1-.22.23,1.26,1.26,0,0,0-.22.33,3.27,3.27,0,0,0-.2.54,3.83,3.83,0,0,0-.14.84m-2.06,1.27a7.15,7.15,0,0,1,.23-1.76,5.15,5.15,0,0,1,.67-1.59,3.7,3.7,0,0,1,1.11-1.15,2.72,2.72,0,0,1,1.53-.44,3,3,0,0,1,1.08.19,2.33,2.33,0,0,1,.77.5,2,2,0,0,1,.46.7,2.24,2.24,0,0,1,.15.81,2.92,2.92,0,0,1-.2,1.05,2.82,2.82,0,0,1-.58.91,2.73,2.73,0,0,1-.93.65,3.15,3.15,0,0,1-1.26.27,2,2,0,0,1-.55,0,5.44,5.44,0,0,1-.54-.14.81.81,0,0,0,0,.2v.13a3.29,3.29,0,0,0,.29,1.37,2.16,2.16,0,0,0,.57.74,1.5,1.5,0,0,0,.59.32,1.65,1.65,0,0,0,.37.07,2.11,2.11,0,0,0,1.22-.33l1.08-.73.26.11a.65.65,0,0,1,.26.22,1.81,1.81,0,0,0,0,.22.81.81,0,0,1,0,.25,1.2,1.2,0,0,1-.18.56,2.16,2.16,0,0,1-.34.39,3.25,3.25,0,0,1-1.15.67,5.12,5.12,0,0,1-1.38.16,3.48,3.48,0,0,1-.94-.17,5.66,5.66,0,0,1-.93-.36,4.2,4.2,0,0,1-.88-.84,3.65,3.65,0,0,1-.5-.9,4.13,4.13,0,0,1-.24-1c0-.34-.06-.7-.08-1.08"/><path class="cls-2" d="M117,26.06c0-.86-.07-1.78-.07-2.76q0-2.51.28-6.26l.5-6.33c0-.35.32-.52.92-.52a1.3,1.3,0,0,1,.52.14,2.76,2.76,0,0,1,.71.45c.25.48.53,1.12.85,1.89s.65,1.7,1,2.78.71,2,1,3,.65,1.77,1,2.48l1-10.25c0-.32.26-.47.68-.47a1.93,1.93,0,0,1,.5.07l.45.12a.49.49,0,0,1,.31.33l-.64,6.35c-.13,1.28-.23,2.44-.3,3.47s-.1,2-.1,2.84v.82c0,.27,0,.56,0,.86a.84.84,0,0,1-.29.62,1,1,0,0,1-.65.28c-.49,0-.9-.34-1.23-1-.25-.49-.53-1.09-.83-1.8s-.62-1.51-1-2.38-.69-1.8-1.06-2.79l-1.11-3.07c0-.09-.07-.14-.11-.14s-.18.11-.22.33c-.06.57-.11,1.18-.14,1.83s0,1.33-.06,2,0,1.39,0,2.08v2c0,.6,0,1.2,0,1.81s0,1.22.08,1.85v.1a.87.87,0,0,1-.41.85.47.47,0,0,1-.35.16.8.8,0,0,1-.43-.14l-.44-.21c-.21-.06-.34-.25-.38-.57Z"/><path class="cls-2" d="M133.05,19.52a1.07,1.07,0,0,0-.5-1,2,2,0,0,0-1.08-.31,1,1,0,0,0-.81.37,3.15,3.15,0,0,0-.56.89,4.87,4.87,0,0,0-.35,1.14,6.14,6.14,0,0,0-.1,1.05c0,.06,0,.19,0,.38a4.87,4.87,0,0,0,.13.59,2,2,0,0,0,.27.54.56.56,0,0,0,.46.24,1.21,1.21,0,0,0,.48-.09l.47-.2a2.31,2.31,0,0,0,.66-.63,3.87,3.87,0,0,0,.46-.88,7.15,7.15,0,0,0,.29-1,10,10,0,0,0,.15-1Zm-2.32,5.65a1.26,1.26,0,0,1-.72-.23c-.21-.15-.43-.29-.67-.44a3.27,3.27,0,0,1-1.21-1.18,3.54,3.54,0,0,1-.42-1.79,5.21,5.21,0,0,1,.18-1.24c.12-.48.22-.93.32-1.34a3,3,0,0,1,.33-.72,4.87,4.87,0,0,1,.65-.9,4.58,4.58,0,0,1,.88-.76,1.76,1.76,0,0,1,1-.34.72.72,0,0,1,.42.15,3.73,3.73,0,0,0,.69.35c.23.1.47.19.72.28l.72.31a2.58,2.58,0,0,1,.66.43,1.37,1.37,0,0,1,.4.52c.1.2.19.4.29.59a1.39,1.39,0,0,1,.14.48c0,.17,0,.34,0,.51v.45a3.6,3.6,0,0,1-.29,1.36,10.1,10.1,0,0,1-.65,1.21,8.1,8.1,0,0,1-.5.71,6.06,6.06,0,0,1-.68.76,4.91,4.91,0,0,1-.8.6,1.54,1.54,0,0,1-.83.25h-.67Z"/><path class="cls-2" d="M136.92,22.19a2.66,2.66,0,0,0-.15-.9,2.66,2.66,0,0,1-.15-.9,7.07,7.07,0,0,0-.12-1.3,6.83,6.83,0,0,1-.12-1.27,4.94,4.94,0,0,1,.08-.87.52.52,0,0,1,.58-.41c.57,0,.93.13,1.08.38a1.72,1.72,0,0,1,.22.9,5.65,5.65,0,0,0,.12,1.19,12,12,0,0,1,.19,1.34c0,.22,0,.42,0,.62a2.8,2.8,0,0,0,.09.58,1.31,1.31,0,0,0,.3-.4c.08-.17.16-.36.24-.56l.23-.56a2.48,2.48,0,0,1,.22-.46,2.81,2.81,0,0,0,.33-.59c.1-.23.2-.44.31-.64a4,4,0,0,1,.35-.55.88.88,0,0,1,.45-.3l.43.13a2.09,2.09,0,0,1,.44.16.85.85,0,0,1,.46.82,7.81,7.81,0,0,0,.26,2.06c.17.67.34,1.26.52,1.76a9,9,0,0,0,.73-1.59q.3-.88.54-1.71t.42-1.53a5,5,0,0,1,.34-1,.81.81,0,0,1,.44-.31,1.56,1.56,0,0,1,.53-.12.79.79,0,0,1,.61.3.87.87,0,0,1,.26.55,2.8,2.8,0,0,1-.1.59c-.08.28-.17.6-.28,1l-.36,1.11-.39,1.11c-.13.34-.24.65-.35.91s-.17.43-.22.53a9.71,9.71,0,0,0-.41,1,5.55,5.55,0,0,1-.42.95,2.11,2.11,0,0,1-.56.68,1.38,1.38,0,0,1-.9.26,1.1,1.1,0,0,1-.9-.4,3.8,3.8,0,0,1-.57-1,13,13,0,0,1-.42-1.29,6.56,6.56,0,0,0-.47-1.23q-.16.28-.36.69c-.12.27-.25.54-.38.81s-.25.55-.39.81a3.85,3.85,0,0,1-.41.65.73.73,0,0,0-.19.29.84.84,0,0,1-.13.27.54.54,0,0,1-.24.2,1,1,0,0,1-.5.09,1,1,0,0,1-.76-.29,1.94,1.94,0,0,1-.39-.69,3.19,3.19,0,0,1-.15-.89c0-.31,0-.59,0-.83Z"/></g></g></svg>